/* XPM */
static char * icon_xpm[] = {
"64 64 325 2",
"  	c None",
". 	c #45895C",
"+ 	c #E4E4E4",
"@ 	c #B9C6BC",
"# 	c #629471",
"$ 	c #000000",
"% 	c #E6E6E6",
"& 	c #D5DAD6",
"* 	c #8AA993",
"= 	c #4B8B60",
"- 	c #E2E3E3",
"; 	c #B6C4B9",
"> 	c #5F936F",
", 	c #E5E6E5",
"' 	c #D4D9D5",
") 	c #89A892",
"! 	c #4A8B60",
"~ 	c #050505",
"{ 	c #494949",
"] 	c #C4C4C4",
"^ 	c #E2E3E2",
"/ 	c #B5C4B9",
"( 	c #5E936E",
"_ 	c #B5B5B5",
": 	c #717171",
"< 	c #919191",
"[ 	c #D3D3D3",
"} 	c #E5E5E5",
"| 	c #D3D8D5",
"1 	c #86A68F",
"2 	c #4A8B5F",
"3 	c #DFDFDF",
"4 	c #B1B1B1",
"5 	c #656565",
"6 	c #A8A8A8",
"7 	c #B2C1B6",
"8 	c #5C916C",
"9 	c #D9D9D9",
"0 	c #DADADA",
"a 	c #999999",
"b 	c #6F6F6F",
"c 	c #C7C7C7",
"d 	c #D2D7D3",
"e 	c #85A58E",
"f 	c #C0C0C0",
"g 	c #858585",
"h 	c #C3C3C3",
"i 	c #C6C6C6",
"j 	c #6B6B6B",
"k 	c #A4A4A4",
"l 	c #E0E0E0",
"m 	c #E1E3E2",
"n 	c #B1C1B5",
"o 	c #5A916B",
"p 	c #969696",
"q 	c #2C2C2C",
"r 	c #929292",
"s 	c #DCDCDC",
"t 	c #797979",
"u 	c #D7D7D7",
"v 	c #D0D6D1",
"w 	c #81A48B",
"x 	c #498A5F",
"y 	c #484848",
"z 	c #CACACA",
"A 	c #E2E2E2",
"B 	c #8C8C8C",
"C 	c #0A0A0A",
"D 	c #5C5C5C",
"E 	c #636363",
"F 	c #E1E2E1",
"G 	c #AEBFB2",
"H 	c #58906A",
"I 	c #C8C8C8",
"J 	c #5E5E5E",
"K 	c #E1E1E1",
"L 	c #272727",
"M 	c #4B4B4B",
"N 	c #A9A9A9",
"O 	c #CDCDCD",
"P 	c #646464",
"Q 	c #CFD5D1",
"R 	c #81A38B",
"S 	c #498A5E",
"T 	c #CBCBCB",
"U 	c #C2C2C2",
"V 	c #9B9B9B",
"W 	c #575757",
"X 	c #827D5B",
"Y 	c #DBDBDB",
"Z 	c #6C6C6C",
"` 	c #ACACAC",
" .	c #E0E2E1",
"..	c #ADBEB2",
"+.	c #589069",
"@.	c #CFCFCF",
"#.	c #626262",
"$.	c #BCBCBC",
"%.	c #69654E",
"&.	c #99925C",
"*.	c #696864",
"=.	c #CECECE",
"-.	c #767676",
";.	c #AAAAAA",
">.	c #CDD4CF",
",.	c #7DA187",
"'.	c #488A5E",
").	c #686868",
"!.	c #B4B4B4",
"~.	c #67634A",
"{.	c #B8AE57",
"].	c #605E54",
"^.	c #BABABA",
"/.	c #DDDDDD",
"(.	c #ADADAD",
"_.	c #E0E1E0",
":.	c #AABCAF",
"<.	c #558F68",
"[.	c #D8D8D8",
"}.	c #65624D",
"|.	c #AEA772",
"1.	c #68665D",
"2.	c #A7A7A7",
"3.	c #E3E3E3",
"4.	c #CCD4CE",
"5.	c #7CA187",
"6.	c #818181",
"7.	c #9D9D9D",
"8.	c #5E5E5D",
"9.	c #A79F68",
"0.	c #928A3C",
"a.	c #D6D6D6",
"b.	c #5B5B5B",
"c.	c #D1D1D1",
"d.	c #DFE1E0",
"e.	c #A9BCAE",
"f.	c #558E67",
"g.	c #909090",
"h.	c #676766",
"i.	c #A69C4E",
"j.	c #988F45",
"k.	c #767675",
"l.	c #DEDEDE",
"m.	c #CAD2CC",
"n.	c #799F83",
"o.	c #478A5E",
"p.	c #959595",
"q.	c #A09743",
"r.	c #A49C5E",
"s.	c #646463",
"t.	c #A2A2A2",
"u.	c #939393",
"v.	c #DEE0DF",
"w.	c #A6B9AB",
"x.	c #538E66",
"y.	c #A1A1A1",
"z.	c #868685",
"A.	c #9B923D",
"B.	c #B4AC71",
"C.	c #626051",
"D.	c #676767",
"E.	c #BBBBBB",
"F.	c #CAD1CC",
"G.	c #789F83",
"H.	c #B2B2B2",
"I.	c #B9B9B9",
"J.	c #989898",
"K.	c #7F7D6F",
"L.	c #C1B545",
"M.	c #646252",
"N.	c #5D5D5D",
"O.	c #4C4C4C",
"P.	c #DEE0DE",
"Q.	c #A4B8A9",
"R.	c #518D64",
"S.	c #7D7D7D",
"T.	c #8D8D8D",
"U.	c #A3A3A3",
"V.	c #726F62",
"W.	c #C1B547",
"X.	c #6A6758",
"Y.	c #181818",
"Z.	c #505050",
"`.	c #E4E5E5",
" +	c #C7D0C9",
".+	c #749D80",
"++	c #478A5D",
"@+	c #AEAEAE",
"#+	c #666353",
"$+	c #C1B647",
"%+	c #817F6E",
"&+	c #999998",
"*+	c #D2D2D2",
"=+	c #828282",
"-+	c #535353",
";+	c #DDDFDD",
">+	c #A2B7A7",
",+	c #508D64",
"'+	c #D4D4D4",
")+	c #8A8A8A",
"!+	c #7F7F7F",
"~+	c #D0D0D0",
"{+	c #B8B8B8",
"]+	c #615E4E",
"^+	c #C3B745",
"/+	c #9B923B",
"(+	c #858584",
"_+	c #6D6D6D",
":+	c #707070",
"<+	c #9A9A9A",
"[+	c #A5A5A5",
"}+	c #C7CFC9",
"|+	c #5F5D4D",
"1+	c #C4B83B",
"2+	c #A09745",
"3+	c #61605F",
"4+	c #525252",
"5+	c #343434",
"6+	c #A0B6A6",
"7+	c #508C63",
"8+	c #9F9F9F",
"9+	c #625F53",
"0+	c #BDB35E",
"a+	c #A59C4E",
"b+	c #666665",
"c+	c #454545",
"d+	c #E4E5E4",
"e+	c #C4CEC6",
"f+	c #709B7C",
"g+	c #46895D",
"h+	c #595959",
"i+	c #62615D",
"j+	c #ACA56D",
"k+	c #ACA35E",
"l+	c #605F5F",
"m+	c #4A4A4A",
"n+	c #5A5A5A",
"o+	c #DCDEDC",
"p+	c #9DB4A3",
"q+	c #4E8C63",
"r+	c #212121",
"s+	c #1D1D1D",
"t+	c #3D3D3D",
"u+	c #666666",
"v+	c #A59D62",
"w+	c #B6AD6E",
"x+	c #615F52",
"y+	c #949494",
"z+	c #AFAFAF",
"A+	c #C1CBC3",
"B+	c #606060",
"C+	c #878787",
"D+	c #9E9657",
"E+	c #C6BA43",
"F+	c #646044",
"G+	c #BDBDBD",
"H+	c #777777",
"I+	c #9A9250",
"J+	c #C8BB3C",
"K+	c #666246",
"L+	c #B6B6B6",
"M+	c #ABABAB",
"N+	c #C5C5C5",
"O+	c #B7B7B7",
"P+	c #8E8E8E",
"Q+	c #958D47",
"R+	c #C8BB3D",
"S+	c #6A6549",
"T+	c #555555",
"U+	c #747474",
"V+	c #6E6E6E",
"W+	c #CCCCCC",
"X+	c #91893E",
"Y+	c #C9BC3D",
"Z+	c #706D52",
"`+	c #787878",
" @	c #9C9C9C",
".@	c #8E863A",
"+@	c #C8BC46",
"@@	c #747056",
"#@	c #5F5F5F",
"$@	c #827E5B",
"%@	c #C3B855",
"&@	c #7B775E",
"*@	c #464646",
"=@	c #757575",
"-@	c #6C6B65",
";@	c #C1B54F",
">@	c #817D64",
",@	c #1C1C1D",
"'@	c #8F8F8F",
")@	c #63615B",
"!@	c #C0B44C",
"~@	c #5C5B54",
"{@	c #BDB246",
"]@	c #88846B",
"^@	c #565656",
"/@	c #848484",
"(@	c #434239",
"_@	c #BCB041",
":@	c #8B876E",
"<@	c #A0A0A0",
"[@	c #48463F",
"}@	c #B6AC58",
"|@	c #706F6D",
"1@	c #9B966D",
"2@	c #8A866B",
"3@	c #9E9E9E",
"4@	c #979797",
"5@	c #A6A6A6",
"6@	c #8E8858",
"7@	c #858062",
"8@	c #BEBEBE",
"9@	c #C1C1C1",
"0@	c #847D43",
"a@	c #6F6E6A",
"b@	c #525251",
"c@	c #3C3C3C",
"d@	c #888888",
"e@	c #3F3F3F",
"f@	c #0E0E0E",
"g@	c #121212",
"h@	c #727272",
"i@	c #363636",
"j@	c #D5D5D5",
"                                                  . . . . . . . . . . . . . .                                                   ",
"                                            + @ # . . . . . . . . . . . . . . . . . .                                           ",
"    $ $ $ $ $                           % % % % & * = . . . . . . . . . . . . . . . . . .                                       ",
"  $           $ $                 % % % % % % % % - ; > . . . . . . . . . . . . . . . . . . .                                   ",
"  $               $ $ $         % % % % % % % % % % , ' ) ! . . . . . . . . . . . . . . . . . . .                               ",
"    $                   ~ { ] + % % % % % % % % % % % % ^ / ( . . . . . . . . . . . . . . . . . . . .                           ",
"    $ $                   _ : < [ } % % % % % % % % % % % , | 1 2 . . . . . . . . . . . . . . . . . . .                         ",
"      $               % % % 3 4 5 6 3 % % % % % % % % % % % % ^ 7 8 . . . . . . . . . . . . . . . . . . .                       ",
"        $           } 9 + % % % 0 a b c } % % % % % % % % % % % } d e 2 . . . . . . . . . . . . . . . . . .                     ",
"          $       % % f g h + % % + i j k l % % % % % % % % % % % % m n o . . . . . . . . . . . . . . . . . .                   ",
"            $   % % % + p q r s % % % s p t u % % % % % % % % % % % % } v w x . . . . . . . . . . . . . . . . .                 ",
"              y z % % % A B C D ] } % % + _ E i } % % % % % % % % % % % % F G H . . . . . . . . . . . . . . . . .               ",
"              I J c % % % K r L M N A % % } O P _ } % % % % % % % % % % % % } Q R S . . . . . . . . . . . . . . . .             ",
"            % % T J U % % % A V W X g Y % % % u Z ` + % % % % % % % % % % % % %  ...+.. . . . . . . . . . . . . . . .           ",
"          % % % % @.#.$.% % % + N %.&.*.=.% % % Y -.;.+ % % % % % % % % % % % % % } >.,.'.. . . . . . . . . . . . . .           ",
"          % % % % % [ ).!.} % % + _ ~.{.].^.} % % /.: (.} % % % % % % % % % % % % % % _.:.<.. . . . . . . . . . . . . .         ",
"        % % % % % % % [.-.6 + % % } U }.|.1.2.3.% % Y 5 $.% % % % % % % % % % % % % % % } 4.5.'.. . . . . . . . . . . .         ",
"      % % % % % % % % % s 6.7.3.% % % O 8.9.0.< 3 % % a.b.c.% % % % % % % % % % % % % % % % d.e.f.. . . . . . . . . . . .       ",
"      % % % % % % % % % % 3 B g.K % % % [ h.i.j.k.[.% % i P l.% % % % % % % % % % % % % % % % } m.n.o.. . . . . . . . . .       ",
"      % % % % % % % % % % % A p.g 3 % % % 9 k.q.r.s.c.% } t.u.} % % % % % % % % % % % % % % % % % v.w.x.. . . . . . . . . .     ",
"    % % % % % % % % % % % % % 3.y.-.u % % % /.z.A.B.C.h } K D.c E.u % % % % % % % % % % % % % % % % } F.G.o.. . . . . . . .     ",
"    % % % % % % % % % % % % % % + H.5 I.+ % % K J.K.L.M.!.+ =.N.O.J 3 % % % % % % % % % % % % % % % % % P.Q.R.. . . . . . . .   ",
"  % % % % % % % % % % % % % % % % % c.S.T.u % % 3.U.V.W.X.2.A g Y.Z.6 % % % % % % % % % % % % % % % % % % `. +.+++. . . . . .   ",
"  % % % % % % % % % % % % % % % % % % K @+P H.A % + (.#+$+%+&+*+q =+-+s 3.} % % % % % % % % % % % % % % % % % ;+>+,+. . . . .   ",
"  % % % % % % % % % % % % % % % % % % % } '+)+!+~+} } {+]+^+/+(+_+:+<+[+r _ % % % % % % % % % % % % % % % % % % `.}+.+++. . .   ",
"  % % % % % % % % % % % % % % % % % % % % % 3.I.5 U./.} U |+1+2+3+I /.4+5 5+[.% % % % % % % % % % % % % % % % % % % ;+6+7+. . . ",
"% % % % % % % % % % % % % % % % % % % % % % % % s 8+j $.3.z 9+0+a+b+'+V 5+c+< } % % % % % % % % % % % % % % % % % % % d+e+f+g+. ",
"% % % % % % % % % % % % % % % % % % % % % % % % % I 7.h+g *+@.i+j+k+l+i m+Z n+'+% % % % % % % % % % % % % % % % % % % % % o+p+q+",
"% % % % % % % % % % % % % % % % % % % % % % % % % 7.q r+s+t+8+=.u+v+w+x+y+V z+g.+ A % % % % % % % % % % % % % % % % % % % % d+A+",
"% % % % % % % % % % % % % % % % % % % % % % % % % 3.I.5 B+)+C+T 0 :+D+E+F+G+K W [+!+3.% % % % % % % % % % % % % % % % % % % % % ",
"% % % % % % % % % % % % % % % % % % % % % % % % % % % 3 _ Z B =.+ /.H+I+J+K+L+M+5+C N+% % % % % % % % % % % % % % % % % % % % % ",
"% % % % % % % % % % % % % % % % % % % % % % % % % % % % % 3 O+b P+=./.6.Q+R+S+2.T+D.U+} % % % % % % % % % % % % % % % % % % % % ",
"% % % % % % % % % % % % % % % % % % % % % % % % % % % % % % % l L+V+u.W+B X+Y+Z+`+I B+[ % % % % % % % % % % % % % % % % % % % % ",
"% % % % % % % % % % % % % % % % % % % % % % % % % % % % % % % % % 3 H.B+ @< .@+@@@8+2.V % % % % % % % % % % % % % % % % % % % % ",
"% % % % % % % % % % % % % % % % % % % % % % % % % % % % % % % % % % c #@s+G+k $@%@&@T.*@0 % % % % % % % % % % % % % % % % % % % ",
"% % % % % % % % % % % % % % % % % % % % % % % % % % % % % % % % % % [.=@4+L+s (.-@;@>@,@ @% % % % % % % % % % % % % % % % % % % ",
"% % % % % % % % % % % % % % % % % % % % % % % % % % % % % % % % % % % A ] '@).t.y.)@!@>@q [.% % % % % % % % % % % % % % % % % % ",
"% % % % % % % % % % % % % % % % % % % % % % % % % % % % % % % % % % % % % + a.t+n+O+~@{@]@)+K % % % % % % % % % % % % % % % % % ",
"  % % % % % % % % % % % % % % % % % % % % % % % % % % % % % % % % % % % % % + <+^@/@S.(@_@:@'@K % % % % % % % % % % % % % % %   ",
"  % % % % % % % % % % % % % % % % % % % % % % % % % % % % % % % % % % % % % % } l.c <@n+[@}@]@T.K % % % % % % % % % % % % % %   ",
"  % % % % % % % % % % % % % % % % % % % % % % % % % % % % % % % % % % } } } % % % % } l [ |@1@2@T.A % % % % % % % % % % % % %   ",
"  % % % % % % % % % % % % % % % % % % % % % % % % % % % % % % % + W+(.3@4@7.5@_ z Y A } % s S.6@7@< A % % % % % % % % % % % %   ",
"    % % % % % % % % % % % % % % % % % % % % % % % % % % % % % } p `+6 I.8@I.z+<@g ).t <@9@s 3 r 0@a@y+3.% % % % % % % % % %     ",
"    % % % % % % % % % % % % 3.+ % % % % % % % % % % % % % % % 9 n+3 % % % % % } + 3 ~+H.T.).T.!.4@b@c@7.+ % % % % % % % % %     ",
"      % % % % % % % % % % % M+d@H.'+A } % % % % % % % % % % % 5@2.% % % % % % % % % % % + s f p 5 e@f@g@5@} % % % % % % %       ",
"      % % % % % % % % % % % 3 ] 8+h@:+a L+c.l.3.} } % % } + 0 n+u % % % % % % % % % % % % % % } /.^./@i@s+!.% % % % % % %       ",
"      % % % % % % % % % % % % % } A j@{+7.t ).t u.t.N ;.k g.D.6 } % % % % % % % % % % % % % % % % % + '+ @*@j@% % % % % %       ",
"        % % % % % % % % % % % % % % % % } A /.c.U _ (.` H.U 0 } % % % % % % % % % % % % % % % % % % % % } c.+ % % % % %         ",
"          % % % % % % % % % % % % % % % % % % % % % % % % % % % % % % % % % % % % % % % % % % % % % % % % % % % % % %           ",
"          % % % % % % % % % % % % % % % % % % % % % % % % % % % % % % % % % % % % % % % % % % % % % % % % % % % % % %           ",
"            % % % % % % % % % % % % % % % % % % % % % % % % % % % % % % % % % % % % % % % % % % % % % % % % % % % %             ",
"              % % % % % % % % % % % % % % % % % % % % % % % % % % % % % % % % % % % % % % % % % % % % % % % % % %               ",
"              % % % % % % % % % % % % % % % % % % % % % % % % % % % % % % % % % % % % % % % % % % % % % % % % % %               ",
"                % % % % % % % % % % % % % % % % % % % % % % % % % % % % % % % % % % % % % % % % % % % % % % % %                 ",
"                  % % % % % % % % % % % % % % % % % % % % % % % % % % % % % % % % % % % % % % % % % % % % % %                   ",
"                    % % % % % % % % % % % % % % % % % % % % % % % % % % % % % % % % % % % % % % % % % % % %                     ",
"                      % % % % % % % % % % % % % % % % % % % % % % % % % % % % % % % % % % % % % % % % % %                       ",
"                          % % % % % % % % % % % % % % % % % % % % % % % % % % % % % % % % % % % % % %                           ",
"                            % % % % % % % % % % % % % % % % % % % % % % % % % % % % % % % % % % % %                             ",
"                                % % % % % % % % % % % % % % % % % % % % % % % % % % % % % % % %                                 ",
"                                  % % % % % % % % % % % % % % % % % % % % % % % % % % % % % %                                   ",
"                                        % % % % % % % % % % % % % % % % % % % % % % % %                                         ",
"                                            % % % % % % % % % % % % % % % % % % % %                                             ",
"                                                    % % % % % % % % % % % %                                                     "};
